<?xml version="1.0" ?><svg id="Layer_1" style="enable-background:new 0 0 512 512;" version="1.1" viewBox="0 0 512 512" xml:space="preserve" xmlns="http://www.w3.org/2000/svg" xmlns:xlink="http://www.w3.org/1999/xlink"><style type="text/css">
	.st0{fill:#F16723;}
	.st1{fill:#FBD20A;}
	.st2{fill:#4E9BD4;}
	.st3{fill:#FFFFFF;}
</style><g><circle cx="439.9" cy="208.7" r="2.1"/><circle cx="86.6" cy="125.9" r="2.1"/><circle cx="219.7" cy="30" r="2.1"/><circle cx="393.2" cy="39.2" r="2.1"/><circle cx="67.7" cy="260.9" r="2.1"/><path class="st0" d="M86.6,49.6h-3.5v-3.5c0-1.9-1.6-3.5-3.5-3.5s-3.5,1.6-3.5,3.5v3.5h-3.5c-1.9,0-3.5,1.6-3.5,3.5   s1.6,3.5,3.5,3.5h3.5v3.5c0,1.9,1.6,3.5,3.5,3.5s3.5-1.6,3.5-3.5v-3.5h3.5c1.9,0,3.5-1.6,3.5-3.5S88.5,49.6,86.6,49.6z"/><circle cx="369" cy="32.2" r="3.1"/><circle cx="429.4" cy="178.3" r="3.1"/><path class="st1" d="M420.3,89.7c-6.6,0-11.9-5.3-11.9-11.9s5.3-11.9,11.9-11.9s11.9,5.3,11.9,11.9S426.9,89.7,420.3,89.7z    M420.3,72.9c-2.7,0-4.9,2.2-4.9,4.9s2.2,4.9,4.9,4.9c2.7,0,4.9-2.2,4.9-4.9S423,72.9,420.3,72.9z"/><path class="st2" d="M453.9,357.6h-3.5v-3.5c0-1.9-1.6-3.5-3.5-3.5s-3.5,1.6-3.5,3.5v3.5h-3.5c-1.9,0-3.5,1.6-3.5,3.5   s1.6,3.5,3.5,3.5h3.5v3.5c0,1.9,1.6,3.5,3.5,3.5s3.5-1.6,3.5-3.5v-3.5h3.5c1.9,0,3.5-1.6,3.5-3.5S455.8,357.6,453.9,357.6z"/><path class="st1" d="M79.6,304.9h-3.5v-3.5c0-1.9-1.6-3.5-3.5-3.5s-3.5,1.6-3.5,3.5v3.5h-3.5c-1.9,0-3.5,1.6-3.5,3.5   s1.6,3.5,3.5,3.5h3.5v3.5c0,1.9,1.6,3.5,3.5,3.5s3.5-1.6,3.5-3.5v-3.5h3.5c1.9,0,3.5-1.6,3.5-3.5S81.5,304.9,79.6,304.9z"/><path class="st2" d="M106.2,447.2c-4.6,0-8.4-3.8-8.4-8.4s3.8-8.4,8.4-8.4s8.4,3.8,8.4,8.4S110.8,447.2,106.2,447.2z M106.2,437.4   c-0.8,0-1.4,0.6-1.4,1.4s0.6,1.4,1.4,1.4s1.4-0.6,1.4-1.4S107,437.4,106.2,437.4z"/><g><rect class="st3" height="341" width="242.7" x="104.6" y="55"/><path d="M347.3,402H104.6c-3.3,0-6-2.7-6-6V55c0-3.3,2.7-6,6-6h242.7c3.3,0,6,2.7,6,6v341C353.3,399.3,350.6,402,347.3,402z     M110.6,390h230.7V61H110.6V390z"/></g><g><rect class="st3" height="341" width="242.7" x="134.6" y="86"/><path d="M377.3,433H134.6c-3.3,0-6-2.7-6-6V86c0-3.3,2.7-6,6-6h242.7c3.3,0,6,2.7,6,6v341C383.3,430.3,380.6,433,377.3,433z     M140.6,421h230.7V92H140.6V421z"/></g><g><rect class="st3" height="341" width="242.7" x="164.6" y="116"/><path d="M407.3,463H164.6c-3.3,0-6-2.7-6-6V116c0-3.3,2.7-6,6-6h242.7c3.3,0,6,2.7,6,6v341C413.3,460.3,410.6,463,407.3,463z     M170.6,451h230.7V122H170.6V451z"/><path d="M372,225.5H200c-3.3,0-6-2.7-6-6s2.7-6,6-6h172c3.3,0,6,2.7,6,6S375.3,225.5,372,225.5z"/><path d="M316.3,181.6H200c-3.3,0-6-2.7-6-6s2.7-6,6-6h116.3c3.3,0,6,2.7,6,6S319.6,181.6,316.3,181.6z"/><path d="M372,252.5H200c-3.3,0-6-2.7-6-6s2.7-6,6-6h172c3.3,0,6,2.7,6,6S375.3,252.5,372,252.5z"/><path d="M372,279.5H200c-3.3,0-6-2.7-6-6s2.7-6,6-6h172c3.3,0,6,2.7,6,6S375.3,279.5,372,279.5z"/><path d="M372,306.5H200c-3.3,0-6-2.7-6-6s2.7-6,6-6h172c3.3,0,6,2.7,6,6S375.3,306.5,372,306.5z"/><path d="M372,333.5H200c-3.3,0-6-2.7-6-6s2.7-6,6-6h172c3.3,0,6,2.7,6,6S375.3,333.5,372,333.5z"/><path d="M372,360.5H200c-3.3,0-6-2.7-6-6s2.7-6,6-6h172c3.3,0,6,2.7,6,6S375.3,360.5,372,360.5z"/><path d="M372,387.5H200c-3.3,0-6-2.7-6-6s2.7-6,6-6h172c3.3,0,6,2.7,6,6S375.3,387.5,372,387.5z"/><path d="M316.3,414.5H200c-3.3,0-6-2.7-6-6s2.7-6,6-6h116.3c3.3,0,6,2.7,6,6S319.6,414.5,316.3,414.5z"/></g></g></svg>